<svg width="38" height="38" viewBox="0 0 38 38" fill="none" xmlns="http://www.w3.org/2000/svg">
<mask id="mask0_567_11" style="mask-type:alpha" maskUnits="userSpaceOnUse" x="0" y="0" width="38" height="38">
<rect width="38" height="38" fill="#D9D9D9"/>
</mask>
<g mask="url(#mask0_567_11)">
<path d="M6.96672 28.5C6.09588 28.5 5.3504 28.1899 4.73026 27.5698C4.11012 26.9496 3.80005 26.2041 3.80005 25.3333V6.33329C3.80005 5.46246 4.11012 4.71697 4.73026 4.09683C5.3504 3.4767 6.09588 3.16663 6.96672 3.16663H16.4667L19.6334 6.33329H32.3C33.1709 6.33329 33.9164 6.64336 34.5365 7.2635C35.1566 7.88364 35.4667 8.62913 35.4667 9.49996H18.3271L15.1605 6.33329H6.96672V25.3333L10.7667 12.6666H37.8417L33.7646 26.2437C33.5535 26.9298 33.1643 27.4774 32.5969 27.8864C32.0296 28.2954 31.4028 28.5 30.7167 28.5H6.96672ZM10.2917 25.3333H30.7167L33.5667 15.8333H13.1417L10.2917 25.3333Z" fill="white"/>
<path d="M6.46672 6.33329V9.49996V25.3333L7.44563 25.477L11.1387 13.1666H37.1695L33.2867 26.0967C33.2866 26.0971 33.2864 26.0976 33.2863 26.0981C33.1062 26.6824 32.7807 27.1376 32.3045 27.4808C31.8205 27.8298 31.2957 28 30.7167 28H6.96672C6.22954 28 5.61093 27.7433 5.08381 27.2162C4.55669 26.6891 4.30005 26.0705 4.30005 25.3333V6.33329C4.30005 5.59612 4.55669 4.97751 5.08381 4.45039C5.61093 3.92327 6.22954 3.66663 6.96672 3.66663H16.2596L19.2798 6.68685L19.4263 6.83329H19.6334H32.3C33.0372 6.83329 33.6558 7.08994 34.183 7.61705C34.5863 8.02041 34.8313 8.47733 34.9241 8.99996H18.5342L15.514 5.97974L15.3676 5.83329H15.1605H6.96672H6.46672V6.33329ZM9.8128 25.1896L9.6197 25.8333H10.2917H30.7167H31.0887L31.1956 25.477L34.0456 15.977L34.2387 15.3333H33.5667H13.1417H12.7697L12.6628 15.6896L9.8128 25.1896Z" stroke="black" stroke-opacity="0.1"/>
</g>
</svg>
