<svg width="50" height="54" viewBox="0 0 50 54" fill="none" xmlns="http://www.w3.org/2000/svg">
<g id="&#208;&#154;&#208;&#189;&#208;&#190;&#208;&#191;&#208;&#186;&#208;&#176; &#208;&#191;&#209;&#128;&#208;&#181;&#208;&#180;&#208;&#191;&#209;&#128;&#208;&#190;&#209;&#129;&#208;&#188;&#208;&#190;&#209;&#130;&#209;&#128;&#208;&#176;">
<mask id="mask0_330_14" style="mask-type:alpha" maskUnits="userSpaceOnUse" x="0" y="0" width="50" height="54">
<rect id="Bounding box" width="50" height="54" fill="#D9D9D9"/>
</mask>
<g mask="url(#mask0_330_14)">
<path id="add_to_home_screen" d="M16.6667 51.75C15.5208 51.75 14.5399 51.3094 13.724 50.4281C12.908 49.5469 12.5 48.4875 12.5 47.25V38.25H16.6667V40.5H37.5V13.5H16.6667V15.75H12.5V6.75C12.5 5.5125 12.908 4.45312 13.724 3.57188C14.5399 2.69063 15.5208 2.25 16.6667 2.25H37.5C38.6458 2.25 39.6267 2.69063 40.4427 3.57188C41.2587 4.45312 41.6667 5.5125 41.6667 6.75V47.25C41.6667 48.4875 41.2587 49.5469 40.4427 50.4281C39.6267 51.3094 38.6458 51.75 37.5 51.75H16.6667ZM16.6667 45V47.25H37.5V45H16.6667ZM9.16667 38.25L6.25 35.1L17.9167 22.5H10.4167V18H25V33.75H20.8333V25.65L9.16667 38.25ZM16.6667 9H37.5V6.75H16.6667V9Z" fill="#1C1B1F"/>
</g>
</g>
</svg>
