<svg width="60" height="60" viewBox="0 0 60 60" fill="none" xmlns="http://www.w3.org/2000/svg">
<mask id="mask0_330_27" style="mask-type:alpha" maskUnits="userSpaceOnUse" x="0" y="0" width="60" height="60">
<rect width="60" height="60" fill="#D9D9D9"/>
<rect x="0.5" y="0.5" width="59" height="59" stroke="black" stroke-opacity="0.1"/>
</mask>
<g mask="url(#mask0_330_27)">
<path d="M27.5 42.5H32.5V32.5H42.5V27.5H32.5V17.5H27.5V27.5H17.5V32.5H27.5V42.5ZM12.5 52.5C11.125 52.5 9.94792 52.0104 8.96875 51.0312C7.98958 50.0521 7.5 48.875 7.5 47.5V12.5C7.5 11.125 7.98958 9.94792 8.96875 8.96875C9.94792 7.98958 11.125 7.5 12.5 7.5H47.5C48.875 7.5 50.0521 7.98958 51.0312 8.96875C52.0104 9.94792 52.5 11.125 52.5 12.5V47.5C52.5 48.875 52.0104 50.0521 51.0312 51.0312C50.0521 52.0104 48.875 52.5 47.5 52.5H12.5ZM12.5 47.5H47.5V12.5H12.5V47.5Z" fill="white"/>
<path d="M32.5 32H32V32.5V42H28V32.5V32H27.5H18V28H27.5H28V27.5V18H32V27.5V28H32.5H42V32H32.5ZM12 47.5V48H12.5H47.5H48V47.5V12.5V12H47.5H12.5H12V12.5V47.5ZM12.5 52C11.2587 52 10.2084 51.5638 9.3223 50.6777C8.43616 49.7916 8 48.7413 8 47.5V12.5C8 11.2587 8.43616 10.2085 9.3223 9.3223C10.2085 8.43616 11.2587 8 12.5 8H47.5C48.7413 8 49.7916 8.43616 50.6777 9.3223C51.5638 10.2084 52 11.2587 52 12.5V47.5C52 48.7413 51.5638 49.7916 50.6777 50.6777C49.7916 51.5638 48.7413 52 47.5 52H12.5Z" stroke="black" stroke-opacity="0.1"/>
</g>
</svg>
