<?xml version="1.0" standalone="no"?>
<!DOCTYPE svg PUBLIC "-//W3C//DTD SVG 20010904//EN"
 "http://www.w3.org/TR/2001/REC-SVG-20010904/DTD/svg10.dtd">
<svg version="1.0" xmlns="http://www.w3.org/2000/svg"
 width="512.000000pt" height="512.000000pt" viewBox="0 0 512.000000 512.000000"
 preserveAspectRatio="xMidYMid meet">

<g transform="translate(0.000000,512.000000) scale(0.100000,-0.100000)"
fill="#000000" stroke="none">
<path d="M295 4596 c-116 -29 -206 -103 -258 -214 l-32 -67 0 -1630 0 -1630
23 -60 c48 -126 151 -249 252 -300 25 -12 353 -155 730 -316 679 -291 686
-293 756 -294 134 0 234 78 269 210 11 44 15 113 15 267 l0 207 368 3 367 3
57 27 c80 37 152 107 191 187 l32 66 3 575 c3 533 2 577 -14 608 -31 59 -110
80 -174 47 -56 -29 -55 -16 -60 -615 -5 -509 -6 -558 -23 -583 -40 -62 -39
-62 -409 -65 l-338 -3 0 1229 c0 845 -3 1247 -11 1287 -14 76 -55 165 -107
235 -83 109 -106 122 -654 357 l-508 218 973 3 c711 2 979 -1 1000 -9 15 -6
38 -26 50 -43 22 -31 22 -32 27 -594 l5 -564 32 -28 c62 -56 152 -45 193 22
20 32 20 45 18 613 l-3 580 -28 56 c-43 88 -98 143 -185 186 l-76 38 -1215 2
c-945 1 -1227 -1 -1266 -11z m705 -628 c322 -138 606 -261 631 -274 49 -24
107 -82 136 -136 17 -31 18 -111 21 -1621 2 -1445 1 -1588 -14 -1594 -9 -3
-297 115 -702 288 -744 318 -738 315 -787 414 -20 39 -20 68 -23 1625 -1 872
0 1591 2 1597 4 9 26 4 78 -18 40 -17 336 -144 658 -281z"/>
<path d="M3779 3566 c-30 -17 -53 -49 -62 -87 -15 -61 3 -84 293 -374 l280
-280 -817 -5 c-789 -5 -819 -6 -850 -25 -61 -36 -79 -113 -43 -173 39 -64 7
-62 902 -62 l812 0 -286 -287 c-244 -245 -287 -293 -293 -325 -4 -20 -4 -46 0
-57 11 -36 54 -79 91 -91 72 -24 86 -13 511 412 270 271 397 405 408 431 32
76 34 74 -414 521 l-409 409 -48 4 c-31 2 -59 -2 -75 -11z"/>
</g>
</svg>
